<svg xmlns="http://www.w3.org/2000/svg" viewBox="0 0 32 32"><defs><style>.cls-1{fill:#231f20;}</style></defs><g id="spa"><path class="cls-1" d="M29.31,15.58a4.88,4.88,0,0,1-2.49-1.88A6,6,0,0,1,26,11.76,1,1,0,0,0,25,11H23.41l-4.7-4.71h0A3,3,0,0,0,19,5a3,3,0,0,0-6,0,3,3,0,0,0,.3,1.29h0L8.59,11H7a1,1,0,0,0-1,.75,5.84,5.84,0,0,1-1.69,2.9,4.55,4.55,0,0,1-1.64.93,1,1,0,0,0-.7,1v7.94a1,1,0,0,0,.69,1A4.88,4.88,0,0,1,5.18,27.3,6,6,0,0,1,6,29.24,1,1,0,0,0,7,30h3a1,1,0,0,0,0-2H7.75a7.51,7.51,0,0,0-.93-1.83A6.86,6.86,0,0,0,4,23.79V17.22a6.12,6.12,0,0,0,1.66-1.07A7.66,7.66,0,0,0,7.74,13H24.25a7.51,7.51,0,0,0,.93,1.83A6.86,6.86,0,0,0,28,17.21v6.58a6.86,6.86,0,0,0-2.82,2.38A7.51,7.51,0,0,0,24.25,28H14a1,1,0,0,0,0,2H25a1,1,0,0,0,1-.76,6,6,0,0,1,.85-1.94,4.88,4.88,0,0,1,2.49-1.88,1,1,0,0,0,.69-1V16.53A1,1,0,0,0,29.31,15.58ZM16,4a1,1,0,1,1-1,1A1,1,0,0,1,16,4ZM14.71,7.71h0a2.92,2.92,0,0,0,2.58,0h0L20.59,11H11.41Z"/><path class="cls-1" d="M12,14.4H9.08a1,1,0,0,0-.95.69A3,3,0,0,1,7,16.62a3.68,3.68,0,0,1-1.21.53,1,1,0,0,0-.76,1v4.76a1,1,0,0,0,.75,1,3.73,3.73,0,0,1,1.81,1,2.68,2.68,0,0,1,.56,1,1,1,0,0,0,1,.7H22.92a1,1,0,0,0,1-.7,2.68,2.68,0,0,1,.56-1,1,1,0,0,0-1.5-1.32,4.69,4.69,0,0,0-.69,1H9.75a4.69,4.69,0,0,0-.69-1A5.32,5.32,0,0,0,7,22.16V18.85a5.38,5.38,0,0,0,1.11-.59A5,5,0,0,0,9.74,16.4H12a1,1,0,0,0,0-2Z"/><path class="cls-1" d="M12.14,19.3a.5.5,0,0,1,.19,0l.1.06.1.07.12,0h1.08a.11.11,0,0,0,.08,0,.18.18,0,0,0,0-.09.94.94,0,0,0-.12-.37,1.42,1.42,0,0,0-.33-.37,1.9,1.9,0,0,0-.53-.28,2.3,2.3,0,0,0-.73-.1,2.1,2.1,0,0,0-.86.16,1.36,1.36,0,0,0-.58.43,1.08,1.08,0,0,0-.21.66,1.06,1.06,0,0,0,.17.6,1.21,1.21,0,0,0,.49.39,2.83,2.83,0,0,0,.74.2,2.58,2.58,0,0,1,.42.07.68.68,0,0,1,.22.08.11.11,0,0,1,.06.1c0,.05,0,.09-.11.11a.85.85,0,0,1-.3.05l-.16,0-.13,0L11.78,21l-.1-.07-.13,0h-1a.14.14,0,0,0-.09,0,.16.16,0,0,0,0,.09.91.91,0,0,0,.2.56,1.35,1.35,0,0,0,.59.43,2.56,2.56,0,0,0,1,.16A2.61,2.61,0,0,0,13.1,22a1.47,1.47,0,0,0,.65-.44,1.19,1.19,0,0,0,.08-1.28,1,1,0,0,0-.47-.38,2.92,2.92,0,0,0-.87-.21l-.38-.06a.51.51,0,0,1-.18-.08.14.14,0,0,1,0-.09.11.11,0,0,1,.07-.11A.32.32,0,0,1,12.14,19.3Z"/><path class="cls-1" d="M17,18.44a2.28,2.28,0,0,0-.86-.15H14.52a.16.16,0,0,0-.1.05.12.12,0,0,0,0,.1v3.5a.15.15,0,0,0,0,.11.21.21,0,0,0,.1,0h1.12a.14.14,0,0,0,.15-.15v-1h.38a2.5,2.5,0,0,0,.86-.14,1.14,1.14,0,0,0,.57-.41,1.47,1.47,0,0,0,0-1.48A1.19,1.19,0,0,0,17,18.44Zm-.72,1.39a.25.25,0,0,1-.17.07h-.38v-.6h.38a.22.22,0,0,1,.2.1.54.54,0,0,1,.05.21A.28.28,0,0,1,16.31,19.83Z"/><path class="cls-1" d="M17.64,22.05a.09.09,0,0,0,.08,0h1a.21.21,0,0,0,.15-.05.24.24,0,0,0,.06-.09l.13-.35h1.17l.13.35a.24.24,0,0,0,.06.09.21.21,0,0,0,.15.05h1a.12.12,0,0,0,.09,0,.11.11,0,0,0,0-.08v0l-1.21-3.46a.42.42,0,0,0-.08-.12.24.24,0,0,0-.17-.06H19.06a.21.21,0,0,0-.16.06.28.28,0,0,0-.08.12l-1.21,3.46v0A.11.11,0,0,0,17.64,22.05Zm2-2.52.31,1h-.61Z"/></g></svg>