<svg xmlns="http://www.w3.org/2000/svg" viewBox="0 0 32 32"><g id="air_conditioner" data-name="air conditioner"><path d="M29,13a1,1,0,0,0-1,1v1a1,1,0,0,1-1,1H5a1,1,0,0,1-1-1V7A1,1,0,0,1,5,6H8A1,1,0,0,0,8,4H5A3,3,0,0,0,2,7V15a3,3,0,0,0,3,3H27a3,3,0,0,0,3-3V14A1,1,0,0,0,29,13Z"/><path d="M27,4H12a1,1,0,0,0,0,2H27a1,1,0,0,1,1,1v3a1,1,0,0,0,2,0V7A3,3,0,0,0,27,4Z"/><path d="M25,7H7A1,1,0,0,0,7,9H25a1,1,0,0,0,0-2Z"/><path d="M26,11a1,1,0,0,0-1-1H7a1,1,0,0,0,0,2H25A1,1,0,0,0,26,11Z"/><path d="M25,15a1,1,0,0,0,0-2h0a1,1,0,1,0,0,2Z"/><path d="M22,13a1,1,0,1,0,1,1,1,1,0,0,0-1-1Z"/><path d="M6,19a1,1,0,0,0-1,1v2a1,1,0,0,0,2,0V20A1,1,0,0,0,6,19Z"/><path d="M16,19a1,1,0,0,0-1,1v7a1,1,0,0,0,2,0V20A1,1,0,0,0,16,19Z"/><path d="M26,19a1,1,0,0,0-1,1v2a1,1,0,0,0,2,0V20A1,1,0,0,0,26,19Z"/><path d="M21,19a1,1,0,0,0-1,1v4a1,1,0,0,0,2,0V20A1,1,0,0,0,21,19Z"/><path d="M11,19a1,1,0,0,0-1,1v4a1,1,0,0,0,2,0V20A1,1,0,0,0,11,19Z"/></g></svg>